<?xml version="1.0" encoding="UTF-8"?>
<svg width="242px" height="60px" viewBox="0 0 242 60" version="1.1" xmlns="http://www.w3.org/2000/svg" xmlns:xlink="http://www.w3.org/1999/xlink">
    <!-- Generator: Sketch 48.2 (47327) - http://www.bohemiancoding.com/sketch -->
    <title>Logo</title>
    <desc>Created with Sketch.</desc>
    <defs></defs>
    <g id="Design---Desktop-alef" stroke="none" stroke-width="1" fill="none" fill-rule="evenodd" transform="translate(-599.000000, -65.000000)">
        <g id="header">
            <g id="Group-13">
                <g transform="translate(193.000000, 65.000000)">
                    <g id="Logo" transform="translate(406.000000, 0.000000)">
                        <path d="M228.956885,-0.000230769231 L228.956885,4.69823077 L236.004577,4.69823077 L236.004577,54.8328462 L228.956885,54.8328462 L228.956885,59.5324615 L241.496885,59.5324615 L241.496885,-0.000230769231 L228.956885,-0.000230769231 Z M0.000346153846,-0.000230769231 L0.000346153846,59.5324615 L12.5415,59.5324615 L12.5415,54.8328462 L5.49265385,54.8328462 L5.49265385,4.69823077 L12.5415,4.69823077 L12.5415,-0.000230769231 L0.000346153846,-0.000230769231 Z" id="Fill-1" fill="#EB008B"></path>
                        <path d="M29.5105385,18.2389615 C29.5105385,17.3966538 28.7213077,16.7124231 27.8259231,16.7124231 L19.1386154,16.7124231 L19.1386154,22.1343462 L22.824,22.1343462 L22.824,43.6143462 L29.5105385,43.6143462 L29.5105385,18.2389615 Z M45.3574615,18.1858846 C45.3574615,17.3435769 44.6201538,16.7124231 43.6728462,16.7124231 L34.7755385,16.7124231 L34.7755385,22.1343462 L38.6709231,22.1343462 L38.6709231,31.0316538 L45.3574615,31.0316538 L45.3574615,18.1858846 Z M73.6278462,18.2920385 C73.6278462,17.4497308 72.9436154,16.7124231 71.9951538,16.7124231 L56.7274615,16.7124231 L56.7274615,10.7101154 L50.094,10.7101154 L50.094,22.1343462 L66.204,22.1343462 L55.359,43.6143462 L62.5716923,43.6143462 L73.6797692,21.4501154 L73.6278462,18.2920385 Z M88.2632308,18.2389615 C88.2632308,17.3966538 87.474,16.7124231 86.5786154,16.7124231 L77.8924615,16.7124231 L77.8924615,22.1343462 L81.5766923,22.1343462 L81.5766923,43.6143462 L88.2632308,43.6143462 L88.2632308,18.2389615 Z M117.587077,18.2389615 C117.587077,17.3966538 116.850923,16.7124231 115.955538,16.7124231 L96.1070769,16.7124231 L94.1593846,32.7693462 C94.1593846,33.7166538 94.9497692,34.3489615 95.8970769,34.2958846 L105.320538,34.2958846 L105.320538,28.8739615 L100.950923,28.8739615 L101.793231,22.1343462 L110.953615,22.1343462 L110.953615,34.0858846 C110.953615,36.8228077 109.848231,38.1924231 106.320923,38.1924231 L93.5282308,38.1924231 L93.5282308,43.6143462 L108.268615,43.6143462 C113.901692,43.6143462 117.587077,39.6658846 117.587077,34.9281923 L117.587077,18.2389615 Z M149.754,18.2389615 C149.754,17.3966538 149.016692,16.7124231 148.122462,16.7124231 L141.962077,16.7124231 C141.277846,16.7124231 140.751692,16.9224231 140.330538,17.3435769 L133.380923,23.7670385 L137.907462,28.2416538 L143.120538,22.0824231 L143.120538,34.2439615 C143.120538,36.5078077 141.489,38.5074231 136.855154,38.5074231 C132.222462,38.5074231 130.590923,36.4547308 130.590923,34.2439615 L130.537846,16.7124231 L123.904385,16.7124231 L123.904385,34.2439615 C123.904385,39.8770385 128.643231,44.1416538 136.855154,44.1416538 C145.015154,44.1416538 149.754,39.8770385 149.754,34.2439615 L149.754,18.2389615 Z M175.340538,18.2389615 C175.340538,17.3966538 174.603231,16.7124231 173.655923,16.7124231 L155.016692,16.7124231 L155.016692,22.1343462 L168.654,22.1343462 L168.654,43.6143462 L175.340538,43.6143462 L175.340538,18.2389615 Z M190.975154,18.2389615 C190.975154,17.3966538 190.185923,16.7124231 189.290538,16.7124231 L180.604385,16.7124231 L180.604385,22.1343462 L184.289769,22.1343462 L184.289769,43.6143462 L190.975154,43.6143462 L190.975154,18.2389615 Z M220.300154,18.2389615 C220.300154,17.3966538 219.562846,16.7124231 218.667462,16.7124231 L198.819,16.7124231 L196.872462,32.7693462 C196.872462,33.7166538 197.660538,34.3489615 198.609,34.2958846 L208.033615,34.2958846 L208.033615,28.8739615 L203.662846,28.8739615 L204.506308,22.1343462 L213.666692,22.1343462 L213.666692,34.0858846 C213.666692,36.8228077 212.560154,38.1924231 209.032846,38.1924231 L196.240154,38.1924231 L196.240154,43.6143462 L210.980538,43.6143462 C216.614769,43.6143462 220.300154,39.6658846 220.300154,34.9281923 L220.300154,18.2389615 Z" id="Fill-2" fill="#404042"></path>
                    </g>
                </g>
            </g>
        </g>
    </g>
</svg>